<svg xmlns="http://www.w3.org/2000/svg" xmlns:xlink="http://www.w3.org/1999/xlink" width="128" height="128" viewBox="0 0 128 128"><defs><style>.a{clip-path:url(#b);}.b{fill:#333;}.c{fill:#89c4ff;}</style><clipPath id="b"><rect width="128" height="128"/></clipPath></defs><g id="a" class="a"><rect class="b" width="128" height="128" rx="10"/><g transform="translate(0 -0.1)"><path class="c" d="M5,0H64a0,0,0,0,1,0,0V26a0,0,0,0,1,0,0H0a0,0,0,0,1,0,0V5A5,5,0,0,1,5,0Z" transform="translate(12.8 31.9)"/><path class="c" d="M0,0H64a0,0,0,0,1,0,0V21a5,5,0,0,1-5,5H0a0,0,0,0,1,0,0V0A0,0,0,0,1,0,0Z" transform="translate(51.2 70.1)"/><path class="c" d="M0,0H20a5,5,0,0,1,5,5V25a0,0,0,0,1,0,0H0a0,0,0,0,1,0,0V0A0,0,0,0,1,0,0Z" transform="translate(90 32.1)"/><path class="c" d="M0,0H26a0,0,0,0,1,0,0V26a0,0,0,0,1,0,0H5a5,5,0,0,1-5-5V0A0,0,0,0,1,0,0Z" transform="translate(12.8 70.3)"/></g></g></svg>